<?xml version="1.0" ?><!DOCTYPE svg  PUBLIC '-//W3C//DTD SVG 1.1//EN'  'http://www.w3.org/Graphics/SVG/1.1/DTD/svg11.dtd'><svg xmlns="http://www.w3.org/2000/svg" width="132.000" height="123.000" viewBox="-20.000 -57.000 132.000 123.000"><polyline points="0.0,-0.0 100.0,-0.0 1.5192246987791975,17.364817766693026 95.48848677737003,-16.837196565873835 8.885946398926166,33.16280343412615 85.49039071082397,-31.11595753452775 21.211629742170032,45.488486777370014 71.21162974217006,-41.114053601073806 37.00961540960315,52.855208477516996 54.374433176296236,-45.62556682370378 54.37443317629617,54.37443317629619 37.009615409603214,-44.10634212492458 71.21162974217,49.862919953666236 21.211629742170096,-36.73962042477763 85.49039071082393,39.864823887120195 8.885946398926222,-24.413937081533774 95.48848677736999,25.58606291846629 1.5192246987792402,-8.615951414100678 99.99999999999996,8.748866352592472 2.842170943040401e-14,8.748866352592339 98.48077530122079,-8.615951414100548 4.511513222629972,25.586062918466162 91.11405360107383,-24.41393708153366 14.509609289175998,39.86482388712008 78.78837025783,-36.73962042477753 28.788370257829897,49.86291995366615 62.99038459039691,-44.10634212492451 45.62556682370371,54.37443317629614 45.625566823703906,-45.625566823703736 62.990384590396715,52.85520847751697 28.788370257830096,-41.11405360107379 78.78837025782983,45.48848677737004 14.509609289176169,-31.11595753452778 91.11405360107369,33.16280343412622 4.5115132226301,-16.837196565873903 98.48077530122069,17.364817766693143 1.1368683772161603e-13,-1.0658141036401503e-13" stroke="#000" fill="none" stroke-linecap="round" stroke-linejoin="round"/><line x1="0.0" y1="0.0" x2="0.0" y2="0.0" stroke="none" fill="none" stroke-linecap="round"/><polygon points="1.1368683772161603e-13,-1.0658141036401503e-13 -8.999999999999874,-5.00000000000013 -6.999999999999886,-1.2445600106048007e-13 -8.999999999999899,4.99999999999987" stroke="#000" fill="#000" fill-rule="evenodd" stroke-linejoin="round"/></svg>